ffmpeg version 8.0.1 Copyright (c) 2000-2025 the FFmpeg developers
  built with Apple clang version 17.0.0 (clang-1700.6.3.2)
  configuration: --prefix=/opt/homebrew/Cellar/ffmpeg/8.0.1_1 --enable-shared --enable-pthreads --enable-version3 --cc=clang --host-cflags= --host-ldflags= --enable-ffplay --enable-gpl --enable-libsvtav1 --enable-libopus --enable-libx264 --enable-libmp3lame --enable-libdav1d --enable-libvpx --enable-libx265 --enable-videotoolbox --enable-audiotoolbox --enable-neon
  libavutil      60.  8.100 / 60.  8.100
  libavcodec     62. 11.100 / 62. 11.100
  libavformat    62.  3.100 / 62.  3.100
  libavdevice    62.  1.100 / 62.  1.100
  libavfilter    11.  4.100 / 11.  4.100
  libswscale      9.  1.100 /  9.  1.100
  libswresample   6.  1.100 /  6.  1.100
[rawvideo @ 0x13de06290] Stream #0: not enough frames to estimate rate; consider increasing probesize
[rawvideo @ 0x13de06290] Estimating duration from bitrate, this may be inaccurate
Input #0, rawvideo, from '../rgb/render.rgb':
  Duration: 00:00:00.02, start: 0.000000, bitrate: 2654154 kb/s
  Stream #0:0: Video: rawvideo (RGB[24] / 0x18424752), rgb24, 1280x720, 2654208 kb/s, 120 tbr, 120 tbn
[out#0/mp4 @ 0x6000030d8240] Error opening output 115127170253186495062/79e72ec5-18ae-4722-b185-88e646d7224b.mp4: No such file or directory
Error opening output file 115127170253186495062/79e72ec5-18ae-4722-b185-88e646d7224b.mp4.
Error opening output files: No such file or directory
ffmpeg version 8.0.1 Copyright (c) 2000-2025 the FFmpeg developers
  built with Apple clang version 17.0.0 (clang-1700.6.3.2)
  configuration: --prefix=/opt/homebrew/Cellar/ffmpeg/8.0.1_1 --enable-shared --enable-pthreads --enable-version3 --cc=clang --host-cflags= --host-ldflags= --enable-ffplay --enable-gpl --enable-libsvtav1 --enable-libopus --enable-libx264 --enable-libmp3lame --enable-libdav1d --enable-libvpx --enable-libx265 --enable-videotoolbox --enable-audiotoolbox --enable-neon
  libavutil      60.  8.100 / 60.  8.100
  libavcodec     62. 11.100 / 62. 11.100
  libavformat    62.  3.100 / 62.  3.100
  libavdevice    62.  1.100 / 62.  1.100
  libavfilter    11.  4.100 / 11.  4.100
  libswscale      9.  1.100 /  9.  1.100
  libswresample   6.  1.100 /  6.  1.100
[rawvideo @ 0x14fe06290] Stream #0: not enough frames to estimate rate; consider increasing probesize
[rawvideo @ 0x14fe06290] Estimating duration from bitrate, this may be inaccurate
Input #0, rawvideo, from '../rgb/render.rgb':
  Duration: 00:00:00.02, start: 0.000000, bitrate: 2654154 kb/s
  Stream #0:0: Video: rawvideo (RGB[24] / 0x18424752), rgb24, 1280x720, 2654208 kb/s, 120 tbr, 120 tbn
[out#0/mp4 @ 0x60000204c240] Error opening output 115127170253186495062/85c96fc8-2412-4020-870f-0c5f4ce84006.mp4: No such file or directory
Error opening output file 115127170253186495062/85c96fc8-2412-4020-870f-0c5f4ce84006.mp4.
Error opening output files: No such file or directory
ffmpeg version 8.0.1 Copyright (c) 2000-2025 the FFmpeg developers
  built with Apple clang version 17.0.0 (clang-1700.6.3.2)
  configuration: --prefix=/opt/homebrew/Cellar/ffmpeg/8.0.1_1 --enable-shared --enable-pthreads --enable-version3 --cc=clang --host-cflags= --host-ldflags= --enable-ffplay --enable-gpl --enable-libsvtav1 --enable-libopus --enable-libx264 --enable-libmp3lame --enable-libdav1d --enable-libvpx --enable-libx265 --enable-videotoolbox --enable-audiotoolbox --enable-neon
  libavutil      60.  8.100 / 60.  8.100
  libavcodec     62. 11.100 / 62. 11.100
  libavformat    62.  3.100 / 62.  3.100
  libavdevice    62.  1.100 / 62.  1.100
  libavfilter    11.  4.100 / 11.  4.100
  libswscale      9.  1.100 /  9.  1.100
  libswresample   6.  1.100 /  6.  1.100
[rawvideo @ 0x149606290] Stream #0: not enough frames to estimate rate; consider increasing probesize
[rawvideo @ 0x149606290] Estimating duration from bitrate, this may be inaccurate
Input #0, rawvideo, from '../rgb/render.rgb':
  Duration: 00:00:00.02, start: 0.000000, bitrate: 2654154 kb/s
  Stream #0:0: Video: rawvideo (RGB[24] / 0x18424752), rgb24, 1280x720, 2654208 kb/s, 120 tbr, 120 tbn
[out#0/mp4 @ 0x600001fc8240] Error opening output 115127170253186495062/c71c90ba-6eab-4603-81a1-d4a2afaad09a.mp4: No such file or directory
Error opening output file 115127170253186495062/c71c90ba-6eab-4603-81a1-d4a2afaad09a.mp4.
Error opening output files: No such file or directory
ffmpeg version 8.0.1 Copyright (c) 2000-2025 the FFmpeg developers
  built with Apple clang version 17.0.0 (clang-1700.6.3.2)
  configuration: --prefix=/opt/homebrew/Cellar/ffmpeg/8.0.1_1 --enable-shared --enable-pthreads --enable-version3 --cc=clang --host-cflags= --host-ldflags= --enable-ffplay --enable-gpl --enable-libsvtav1 --enable-libopus --enable-libx264 --enable-libmp3lame --enable-libdav1d --enable-libvpx --enable-libx265 --enable-videotoolbox --enable-audiotoolbox --enable-neon
  libavutil      60.  8.100 / 60.  8.100
  libavcodec     62. 11.100 / 62. 11.100
  libavformat    62.  3.100 / 62.  3.100
  libavdevice    62.  1.100 / 62.  1.100
  libavfilter    11.  4.100 / 11.  4.100
  libswscale      9.  1.100 /  9.  1.100
  libswresample   6.  1.100 /  6.  1.100
[in#0 @ 0x14b704200] Error opening input: No such file or directory
Error opening input file render.mp4.
Error opening input files: No such file or directory
ffmpeg version 8.0.1 Copyright (c) 2000-2025 the FFmpeg developers
  built with Apple clang version 17.0.0 (clang-1700.6.3.2)
  configuration: --prefix=/opt/homebrew/Cellar/ffmpeg/8.0.1_1 --enable-shared --enable-pthreads --enable-version3 --cc=clang --host-cflags= --host-ldflags= --enable-ffplay --enable-gpl --enable-libsvtav1 --enable-libopus --enable-libx264 --enable-libmp3lame --enable-libdav1d --enable-libvpx --enable-libx265 --enable-videotoolbox --enable-audiotoolbox --enable-neon
  libavutil      60.  8.100 / 60.  8.100
  libavcodec     62. 11.100 / 62. 11.100
  libavformat    62.  3.100 / 62.  3.100
  libavdevice    62.  1.100 / 62.  1.100
  libavfilter    11.  4.100 / 11.  4.100
  libswscale      9.  1.100 /  9.  1.100
  libswresample   6.  1.100 /  6.  1.100
[rawvideo @ 0x143e06290] Stream #0: not enough frames to estimate rate; consider increasing probesize
[rawvideo @ 0x143e06290] Estimating duration from bitrate, this may be inaccurate
Input #0, rawvideo, from 'render.rgb':
  Duration: 00:00:00.02, start: 0.000000, bitrate: 2654154 kb/s
  Stream #0:0: Video: rawvideo (RGB[24] / 0x18424752), rgb24, 1280x720, 2654208 kb/s, 120 tbr, 120 tbn
Stream mapping:
  Stream #0:0 -> #0:0 (rawvideo (native) -> h264 (libx264))
Press [q] to stop, [?] for help
[libx264 @ 0x143f05010] using cpu capabilities: ARMv8 NEON DotProd I8MM
[libx264 @ 0x143f05010] profile High 4:4:4 Predictive, level 4.2, 4:4:4, 8-bit
[libx264 @ 0x143f05010] 264 - core 165 r3222 b35605a - H.264/MPEG-4 AVC codec - Copyleft 2003-2025 - http://www.videolan.org/x264.html - options: cabac=1 ref=3 deblock=1:0:0 analyse=0x3:0x113 me=hex subme=7 psy=1 psy_rd=1.00:0.00 mixed_ref=1 me_range=16 chroma_me=1 trellis=1 8x8dct=1 cqm=0 deadzone=21,11 fast_pskip=1 chroma_qp_offset=4 threads=16 lookahead_threads=2 sliced_threads=0 nr=0 decimate=1 interlaced=0 bluray_compat=0 constrained_intra=0 bframes=3 b_pyramid=2 b_adapt=1 b_bias=0 direct=1 weightb=1 open_gop=0 weightp=2 keyint=250 keyint_min=25 scenecut=40 intra_refresh=0 rc_lookahead=40 rc=crf mbtree=1 crf=23.0 qcomp=0.60 qpmin=0 qpmax=69 qpstep=4 ip_ratio=1.40 aq=1:1.00
Output #0, mp4, to 'render.mp4':
  Metadata:
    encoder         : Lavf62.3.100
  Stream #0:0: Video: h264 (avc1 / 0x31637661), yuv444p(tv, progressive), 1280x720, q=2-31, 120 fps, 15360 tbn
    Metadata:
      encoder         : Lavc62.11.100 libx264
    Side data:
      cpb: bitrate max/min/avg: 0/0/0 buffer size: 0 vbv_delay: N/A
[out#0/mp4 @ 0x6000032b4000] video:4KiB audio:0KiB subtitle:0KiB other streams:0KiB global headers:0KiB muxing overhead: 19.270833%
frame=    2 fps=0.0 q=-1.0 Lsize=       5KiB time=00:00:00.01 bitrate=2528.1kbits/s speed=0.871x elapsed=0:00:00.01    
[libx264 @ 0x143f05010] frame I:1     Avg QP:24.24  size:  3045
[libx264 @ 0x143f05010] frame P:1     Avg QP:24.63  size:   682
[libx264 @ 0x143f05010] mb I  I16..4: 54.6% 45.3%  0.1%
[libx264 @ 0x143f05010] mb P  I16..4:  4.7%  0.0%  0.0%  P16..4:  9.7%  0.2%  1.2%  0.0%  0.0%    skip:84.2%
[libx264 @ 0x143f05010] 8x8 transform intra:43.3%
[libx264 @ 0x143f05010] coded y,u,v intra: 7.1% 0.1% 0.1% inter: 0.0% 0.0% 0.0%
[libx264 @ 0x143f05010] i16 v,h,dc,p: 17% 14%  2% 68%
[libx264 @ 0x143f05010] i8 v,h,dc,ddl,ddr,vr,hd,vl,hu: 55%  6% 26%  3%  2%  2%  1%  4%  0%
[libx264 @ 0x143f05010] i4 v,h,dc,ddl,ddr,vr,hd,vl,hu: 10%  8% 42% 10% 12%  6%  8%  0%  2%
[libx264 @ 0x143f05010] Weighted P-Frames: Y:0.0% UV:0.0%
[libx264 @ 0x143f05010] kb/s:1788.96
ffmpeg version 8.0.1 Copyright (c) 2000-2025 the FFmpeg developers
  built with Apple clang version 17.0.0 (clang-1700.6.3.2)
  configuration: --prefix=/opt/homebrew/Cellar/ffmpeg/8.0.1_1 --enable-shared --enable-pthreads --enable-version3 --cc=clang --host-cflags= --host-ldflags= --enable-ffplay --enable-gpl --enable-libsvtav1 --enable-libopus --enable-libx264 --enable-libmp3lame --enable-libdav1d --enable-libvpx --enable-libx265 --enable-videotoolbox --enable-audiotoolbox --enable-neon
  libavutil      60.  8.100 / 60.  8.100
  libavcodec     62. 11.100 / 62. 11.100
  libavformat    62.  3.100 / 62.  3.100
  libavdevice    62.  1.100 / 62.  1.100
  libavfilter    11.  4.100 / 11.  4.100
  libswscale      9.  1.100 /  9.  1.100
  libswresample   6.  1.100 /  6.  1.100
[rawvideo @ 0x13c606290] Stream #0: not enough frames to estimate rate; consider increasing probesize
[rawvideo @ 0x13c606290] Estimating duration from bitrate, this may be inaccurate
Input #0, rawvideo, from 'render.rgb':
  Duration: 00:00:00.02, start: 0.000000, bitrate: 2654154 kb/s
  Stream #0:0: Video: rawvideo (RGB[24] / 0x18424752), rgb24, 1280x720, 2654208 kb/s, 120 tbr, 120 tbn
Stream mapping:
  Stream #0:0 -> #0:0 (rawvideo (native) -> h264 (libx264))
Press [q] to stop, [?] for help
[libx264 @ 0x13c607810] using cpu capabilities: ARMv8 NEON DotProd I8MM
[libx264 @ 0x13c607810] profile High 4:4:4 Predictive, level 4.2, 4:4:4, 8-bit
[libx264 @ 0x13c607810] 264 - core 165 r3222 b35605a - H.264/MPEG-4 AVC codec - Copyleft 2003-2025 - http://www.videolan.org/x264.html - options: cabac=1 ref=3 deblock=1:0:0 analyse=0x3:0x113 me=hex subme=7 psy=1 psy_rd=1.00:0.00 mixed_ref=1 me_range=16 chroma_me=1 trellis=1 8x8dct=1 cqm=0 deadzone=21,11 fast_pskip=1 chroma_qp_offset=4 threads=16 lookahead_threads=2 sliced_threads=0 nr=0 decimate=1 interlaced=0 bluray_compat=0 constrained_intra=0 bframes=3 b_pyramid=2 b_adapt=1 b_bias=0 direct=1 weightb=1 open_gop=0 weightp=2 keyint=250 keyint_min=25 scenecut=40 intra_refresh=0 rc_lookahead=40 rc=crf mbtree=1 crf=23.0 qcomp=0.60 qpmin=0 qpmax=69 qpstep=4 ip_ratio=1.40 aq=1:1.00
Output #0, mp4, to 'render.mp4':
  Metadata:
    encoder         : Lavf62.3.100
  Stream #0:0: Video: h264 (avc1 / 0x31637661), yuv444p(tv, progressive), 1280x720, q=2-31, 120 fps, 15360 tbn
    Metadata:
      encoder         : Lavc62.11.100 libx264
    Side data:
      cpb: bitrate max/min/avg: 0/0/0 buffer size: 0 vbv_delay: N/A
[out#0/mp4 @ 0x60000323c240] video:4KiB audio:0KiB subtitle:0KiB other streams:0KiB global headers:0KiB muxing overhead: 19.270833%
frame=    2 fps=0.0 q=-1.0 Lsize=       5KiB time=00:00:00.01 bitrate=2528.1kbits/s speed=1.13x elapsed=0:00:00.01    
[libx264 @ 0x13c607810] frame I:1     Avg QP:24.24  size:  3045
[libx264 @ 0x13c607810] frame P:1     Avg QP:24.63  size:   682
[libx264 @ 0x13c607810] mb I  I16..4: 54.6% 45.3%  0.1%
[libx264 @ 0x13c607810] mb P  I16..4:  4.7%  0.0%  0.0%  P16..4:  9.7%  0.2%  1.2%  0.0%  0.0%    skip:84.2%
[libx264 @ 0x13c607810] 8x8 transform intra:43.3%
[libx264 @ 0x13c607810] coded y,u,v intra: 7.1% 0.1% 0.1% inter: 0.0% 0.0% 0.0%
[libx264 @ 0x13c607810] i16 v,h,dc,p: 17% 14%  2% 68%
[libx264 @ 0x13c607810] i8 v,h,dc,ddl,ddr,vr,hd,vl,hu: 55%  6% 26%  3%  2%  2%  1%  4%  0%
[libx264 @ 0x13c607810] i4 v,h,dc,ddl,ddr,vr,hd,vl,hu: 10%  8% 42% 10% 12%  6%  8%  0%  2%
[libx264 @ 0x13c607810] Weighted P-Frames: Y:0.0% UV:0.0%
[libx264 @ 0x13c607810] kb/s:1788.96
ffmpeg version 8.0.1 Copyright (c) 2000-2025 the FFmpeg developers
  built with Apple clang version 17.0.0 (clang-1700.6.3.2)
  configuration: --prefix=/opt/homebrew/Cellar/ffmpeg/8.0.1_1 --enable-shared --enable-pthreads --enable-version3 --cc=clang --host-cflags= --host-ldflags= --enable-ffplay --enable-gpl --enable-libsvtav1 --enable-libopus --enable-libx264 --enable-libmp3lame --enable-libdav1d --enable-libvpx --enable-libx265 --enable-videotoolbox --enable-audiotoolbox --enable-neon
  libavutil      60.  8.100 / 60.  8.100
  libavcodec     62. 11.100 / 62. 11.100
  libavformat    62.  3.100 / 62.  3.100
  libavdevice    62.  1.100 / 62.  1.100
  libavfilter    11.  4.100 / 11.  4.100
  libswscale      9.  1.100 /  9.  1.100
  libswresample   6.  1.100 /  6.  1.100
[rawvideo @ 0x146704310] Stream #0: not enough frames to estimate rate; consider increasing probesize
[rawvideo @ 0x146704310] Estimating duration from bitrate, this may be inaccurate
Input #0, rawvideo, from 'render.rgb':
  Duration: 00:00:02.59, start: 0.000000, bitrate: 2654207 kb/s
  Stream #0:0: Video: rawvideo (RGB[24] / 0x18424752), rgb24, 1280x720, 2654208 kb/s, 120 tbr, 120 tbn
Stream mapping:
  Stream #0:0 -> #0:0 (rawvideo (native) -> h264 (libx264))
Press [q] to stop, [?] for help
[libx264 @ 0x146606f70] using cpu capabilities: ARMv8 NEON DotProd I8MM
[libx264 @ 0x146606f70] profile High 4:4:4 Predictive, level 4.2, 4:4:4, 8-bit
[libx264 @ 0x146606f70] 264 - core 165 r3222 b35605a - H.264/MPEG-4 AVC codec - Copyleft 2003-2025 - http://www.videolan.org/x264.html - options: cabac=1 ref=3 deblock=1:0:0 analyse=0x3:0x113 me=hex subme=7 psy=1 psy_rd=1.00:0.00 mixed_ref=1 me_range=16 chroma_me=1 trellis=1 8x8dct=1 cqm=0 deadzone=21,11 fast_pskip=1 chroma_qp_offset=4 threads=16 lookahead_threads=2 sliced_threads=0 nr=0 decimate=1 interlaced=0 bluray_compat=0 constrained_intra=0 bframes=3 b_pyramid=2 b_adapt=1 b_bias=0 direct=1 weightb=1 open_gop=0 weightp=2 keyint=250 keyint_min=25 scenecut=40 intra_refresh=0 rc_lookahead=40 rc=crf mbtree=1 crf=23.0 qcomp=0.60 qpmin=0 qpmax=69 qpstep=4 ip_ratio=1.40 aq=1:1.00
Output #0, mp4, to 'render.mp4':
  Metadata:
    encoder         : Lavf62.3.100
  Stream #0:0: Video: h264 (avc1 / 0x31637661), yuv444p(tv, progressive), 1280x720, q=2-31, 120 fps, 15360 tbn
    Metadata:
      encoder         : Lavc62.11.100 libx264
    Side data:
      cpb: bitrate max/min/avg: 0/0/0 buffer size: 0 vbv_delay: N/A
[out#0/mp4 @ 0x6000000a4240] video:63KiB audio:0KiB subtitle:0KiB other streams:0KiB global headers:0KiB muxing overhead: 7.056299%
frame=  311 fps=0.0 q=-1.0 Lsize=      68KiB time=00:00:02.57 bitrate= 215.5kbits/s speed=5.17x elapsed=0:00:00.49    
[libx264 @ 0x146606f70] frame I:2     Avg QP:15.96  size:  6774
[libx264 @ 0x146606f70] frame P:80    Avg QP:21.53  size:   276
[libx264 @ 0x146606f70] frame B:229   Avg QP:29.08  size:   124
[libx264 @ 0x146606f70] consecutive B-frames:  0.6%  2.6%  2.9% 93.9%
[libx264 @ 0x146606f70] mb I  I16..4: 41.1% 53.2%  5.7%
[libx264 @ 0x146606f70] mb P  I16..4:  0.1%  0.1%  0.0%  P16..4:  1.1%  0.3%  0.1%  0.0%  0.0%    skip:98.2%
[libx264 @ 0x146606f70] mb B  I16..4:  0.0%  0.0%  0.0%  B16..8:  1.2%  0.1%  0.0%  direct: 0.0%  skip:98.6%  L0:27.2% L1:71.8% BI: 1.0%
[libx264 @ 0x146606f70] 8x8 transform intra:51.7% inter:61.9%
[libx264 @ 0x146606f70] coded y,u,v intra: 9.9% 0.3% 0.3% inter: 0.0% 0.0% 0.0%
[libx264 @ 0x146606f70] i16 v,h,dc,p: 10% 10%  2% 79%
[libx264 @ 0x146606f70] i8 v,h,dc,ddl,ddr,vr,hd,vl,hu: 36%  6% 14% 10%  9%  9%  5% 10%  2%
[libx264 @ 0x146606f70] i4 v,h,dc,ddl,ddr,vr,hd,vl,hu: 34% 13% 28%  3%  8%  7%  3%  3%  1%
[libx264 @ 0x146606f70] Weighted P-Frames: Y:0.0% UV:0.0%
[libx264 @ 0x146606f70] ref P L0: 78.5%  6.3% 10.9%  4.3%
[libx264 @ 0x146606f70] ref B L0: 54.8% 41.7%  3.5%
[libx264 @ 0x146606f70] ref B L1: 96.1%  3.9%
[libx264 @ 0x146606f70] kb/s:197.83
ffmpeg version 8.0.1 Copyright (c) 2000-2025 the FFmpeg developers
  built with Apple clang version 17.0.0 (clang-1700.6.3.2)
  configuration: --prefix=/opt/homebrew/Cellar/ffmpeg/8.0.1_1 --enable-shared --enable-pthreads --enable-version3 --cc=clang --host-cflags= --host-ldflags= --enable-ffplay --enable-gpl --enable-libsvtav1 --enable-libopus --enable-libx264 --enable-libmp3lame --enable-libdav1d --enable-libvpx --enable-libx265 --enable-videotoolbox --enable-audiotoolbox --enable-neon
  libavutil      60.  8.100 / 60.  8.100
  libavcodec     62. 11.100 / 62. 11.100
  libavformat    62.  3.100 / 62.  3.100
  libavdevice    62.  1.100 / 62.  1.100
  libavfilter    11.  4.100 / 11.  4.100
  libswscale      9.  1.100 /  9.  1.100
  libswresample   6.  1.100 /  6.  1.100
[rawvideo @ 0x126606290] Stream #0: not enough frames to estimate rate; consider increasing probesize
[rawvideo @ 0x126606290] Estimating duration from bitrate, this may be inaccurate
Input #0, rawvideo, from 'render.rgb':
  Duration: 00:00:02.59, start: 0.000000, bitrate: 2654207 kb/s
  Stream #0:0: Video: rawvideo (RGB[24] / 0x18424752), rgb24, 1280x720, 2654208 kb/s, 120 tbr, 120 tbn
Stream mapping:
  Stream #0:0 -> #0:0 (rawvideo (native) -> h264 (libx264))
Press [q] to stop, [?] for help
[libx264 @ 0x126607810] using cpu capabilities: ARMv8 NEON DotProd I8MM
[libx264 @ 0x126607810] profile High 4:4:4 Predictive, level 4.2, 4:4:4, 8-bit
[libx264 @ 0x126607810] 264 - core 165 r3222 b35605a - H.264/MPEG-4 AVC codec - Copyleft 2003-2025 - http://www.videolan.org/x264.html - options: cabac=1 ref=3 deblock=1:0:0 analyse=0x3:0x113 me=hex subme=7 psy=1 psy_rd=1.00:0.00 mixed_ref=1 me_range=16 chroma_me=1 trellis=1 8x8dct=1 cqm=0 deadzone=21,11 fast_pskip=1 chroma_qp_offset=4 threads=16 lookahead_threads=2 sliced_threads=0 nr=0 decimate=1 interlaced=0 bluray_compat=0 constrained_intra=0 bframes=3 b_pyramid=2 b_adapt=1 b_bias=0 direct=1 weightb=1 open_gop=0 weightp=2 keyint=250 keyint_min=25 scenecut=40 intra_refresh=0 rc_lookahead=40 rc=crf mbtree=1 crf=23.0 qcomp=0.60 qpmin=0 qpmax=69 qpstep=4 ip_ratio=1.40 aq=1:1.00
Output #0, mp4, to 'render.mp4':
  Metadata:
    encoder         : Lavf62.3.100
  Stream #0:0: Video: h264 (avc1 / 0x31637661), yuv444p(tv, progressive), 1280x720, q=2-31, 120 fps, 15360 tbn
    Metadata:
      encoder         : Lavc62.11.100 libx264
    Side data:
      cpb: bitrate max/min/avg: 0/0/0 buffer size: 0 vbv_delay: N/A
[out#0/mp4 @ 0x600000964240] video:63KiB audio:0KiB subtitle:0KiB other streams:0KiB global headers:0KiB muxing overhead: 7.056299%
frame=  311 fps=0.0 q=-1.0 Lsize=      68KiB time=00:00:02.57 bitrate= 215.5kbits/s speed=5.37x elapsed=0:00:00.47    
[libx264 @ 0x126607810] frame I:2     Avg QP:15.96  size:  6774
[libx264 @ 0x126607810] frame P:80    Avg QP:21.53  size:   276
[libx264 @ 0x126607810] frame B:229   Avg QP:29.08  size:   124
[libx264 @ 0x126607810] consecutive B-frames:  0.6%  2.6%  2.9% 93.9%
[libx264 @ 0x126607810] mb I  I16..4: 41.1% 53.2%  5.7%
[libx264 @ 0x126607810] mb P  I16..4:  0.1%  0.1%  0.0%  P16..4:  1.1%  0.3%  0.1%  0.0%  0.0%    skip:98.2%
[libx264 @ 0x126607810] mb B  I16..4:  0.0%  0.0%  0.0%  B16..8:  1.2%  0.1%  0.0%  direct: 0.0%  skip:98.6%  L0:27.2% L1:71.8% BI: 1.0%
[libx264 @ 0x126607810] 8x8 transform intra:51.7% inter:61.9%
[libx264 @ 0x126607810] coded y,u,v intra: 9.9% 0.3% 0.3% inter: 0.0% 0.0% 0.0%
[libx264 @ 0x126607810] i16 v,h,dc,p: 10% 10%  2% 79%
[libx264 @ 0x126607810] i8 v,h,dc,ddl,ddr,vr,hd,vl,hu: 36%  6% 14% 10%  9%  9%  5% 10%  2%
[libx264 @ 0x126607810] i4 v,h,dc,ddl,ddr,vr,hd,vl,hu: 34% 13% 28%  3%  8%  7%  3%  3%  1%
[libx264 @ 0x126607810] Weighted P-Frames: Y:0.0% UV:0.0%
[libx264 @ 0x126607810] ref P L0: 78.5%  6.3% 10.9%  4.3%
[libx264 @ 0x126607810] ref B L0: 54.8% 41.7%  3.5%
[libx264 @ 0x126607810] ref B L1: 96.1%  3.9%
[libx264 @ 0x126607810] kb/s:197.83
ffmpeg version 8.0.1 Copyright (c) 2000-2025 the FFmpeg developers
  built with Apple clang version 17.0.0 (clang-1700.6.3.2)
  configuration: --prefix=/opt/homebrew/Cellar/ffmpeg/8.0.1_1 --enable-shared --enable-pthreads --enable-version3 --cc=clang --host-cflags= --host-ldflags= --enable-ffplay --enable-gpl --enable-libsvtav1 --enable-libopus --enable-libx264 --enable-libmp3lame --enable-libdav1d --enable-libvpx --enable-libx265 --enable-videotoolbox --enable-audiotoolbox --enable-neon
  libavutil      60.  8.100 / 60.  8.100
  libavcodec     62. 11.100 / 62. 11.100
  libavformat    62.  3.100 / 62.  3.100
  libavdevice    62.  1.100 / 62.  1.100
  libavfilter    11.  4.100 / 11.  4.100
  libswscale      9.  1.100 /  9.  1.100
  libswresample   6.  1.100 /  6.  1.100
[rawvideo @ 0x124704190] Stream #0: not enough frames to estimate rate; consider increasing probesize
[rawvideo @ 0x124704190] Estimating duration from bitrate, this may be inaccurate
Input #0, rawvideo, from 'render.rgb':
  Duration: 00:00:02.59, start: 0.000000, bitrate: 2654207 kb/s
  Stream #0:0: Video: rawvideo (RGB[24] / 0x18424752), rgb24, 1280x720, 2654208 kb/s, 120 tbr, 120 tbn
Stream mapping:
  Stream #0:0 -> #0:0 (rawvideo (native) -> h264 (libx264))
Press [q] to stop, [?] for help
[libx264 @ 0x124606d40] using cpu capabilities: ARMv8 NEON DotProd I8MM
[libx264 @ 0x124606d40] profile High 4:4:4 Predictive, level 4.2, 4:4:4, 8-bit
[libx264 @ 0x124606d40] 264 - core 165 r3222 b35605a - H.264/MPEG-4 AVC codec - Copyleft 2003-2025 - http://www.videolan.org/x264.html - options: cabac=1 ref=3 deblock=1:0:0 analyse=0x3:0x113 me=hex subme=7 psy=1 psy_rd=1.00:0.00 mixed_ref=1 me_range=16 chroma_me=1 trellis=1 8x8dct=1 cqm=0 deadzone=21,11 fast_pskip=1 chroma_qp_offset=4 threads=16 lookahead_threads=2 sliced_threads=0 nr=0 decimate=1 interlaced=0 bluray_compat=0 constrained_intra=0 bframes=3 b_pyramid=2 b_adapt=1 b_bias=0 direct=1 weightb=1 open_gop=0 weightp=2 keyint=250 keyint_min=25 scenecut=40 intra_refresh=0 rc_lookahead=40 rc=crf mbtree=1 crf=23.0 qcomp=0.60 qpmin=0 qpmax=69 qpstep=4 ip_ratio=1.40 aq=1:1.00
Output #0, mp4, to 'render.mp4':
  Metadata:
    encoder         : Lavf62.3.100
  Stream #0:0: Video: h264 (avc1 / 0x31637661), yuv444p(tv, progressive), 1280x720, q=2-31, 120 fps, 15360 tbn
    Metadata:
      encoder         : Lavc62.11.100 libx264
    Side data:
      cpb: bitrate max/min/avg: 0/0/0 buffer size: 0 vbv_delay: N/A
[out#0/mp4 @ 0x600002f3c240] video:63KiB audio:0KiB subtitle:0KiB other streams:0KiB global headers:0KiB muxing overhead: 7.056299%
frame=  311 fps=0.0 q=-1.0 Lsize=      68KiB time=00:00:02.57 bitrate= 215.5kbits/s speed=5.71x elapsed=0:00:00.45    
[libx264 @ 0x124606d40] frame I:2     Avg QP:15.96  size:  6774
[libx264 @ 0x124606d40] frame P:80    Avg QP:21.53  size:   276
[libx264 @ 0x124606d40] frame B:229   Avg QP:29.08  size:   124
[libx264 @ 0x124606d40] consecutive B-frames:  0.6%  2.6%  2.9% 93.9%
[libx264 @ 0x124606d40] mb I  I16..4: 41.1% 53.2%  5.7%
[libx264 @ 0x124606d40] mb P  I16..4:  0.1%  0.1%  0.0%  P16..4:  1.1%  0.3%  0.1%  0.0%  0.0%    skip:98.2%
[libx264 @ 0x124606d40] mb B  I16..4:  0.0%  0.0%  0.0%  B16..8:  1.2%  0.1%  0.0%  direct: 0.0%  skip:98.6%  L0:27.2% L1:71.8% BI: 1.0%
[libx264 @ 0x124606d40] 8x8 transform intra:51.7% inter:61.9%
[libx264 @ 0x124606d40] coded y,u,v intra: 9.9% 0.3% 0.3% inter: 0.0% 0.0% 0.0%
[libx264 @ 0x124606d40] i16 v,h,dc,p: 10% 10%  2% 79%
[libx264 @ 0x124606d40] i8 v,h,dc,ddl,ddr,vr,hd,vl,hu: 36%  6% 14% 10%  9%  9%  5% 10%  2%
[libx264 @ 0x124606d40] i4 v,h,dc,ddl,ddr,vr,hd,vl,hu: 34% 13% 28%  3%  8%  7%  3%  3%  1%
[libx264 @ 0x124606d40] Weighted P-Frames: Y:0.0% UV:0.0%
[libx264 @ 0x124606d40] ref P L0: 78.5%  6.3% 10.9%  4.3%
[libx264 @ 0x124606d40] ref B L0: 54.8% 41.7%  3.5%
[libx264 @ 0x124606d40] ref B L1: 96.1%  3.9%
[libx264 @ 0x124606d40] kb/s:197.83
ffmpeg version 8.0.1 Copyright (c) 2000-2025 the FFmpeg developers
  built with Apple clang version 17.0.0 (clang-1700.6.3.2)
  configuration: --prefix=/opt/homebrew/Cellar/ffmpeg/8.0.1_1 --enable-shared --enable-pthreads --enable-version3 --cc=clang --host-cflags= --host-ldflags= --enable-ffplay --enable-gpl --enable-libsvtav1 --enable-libopus --enable-libx264 --enable-libmp3lame --enable-libdav1d --enable-libvpx --enable-libx265 --enable-videotoolbox --enable-audiotoolbox --enable-neon
  libavutil      60.  8.100 / 60.  8.100
  libavcodec     62. 11.100 / 62. 11.100
  libavformat    62.  3.100 / 62.  3.100
  libavdevice    62.  1.100 / 62.  1.100
  libavfilter    11.  4.100 / 11.  4.100
  libswscale      9.  1.100 /  9.  1.100
  libswresample   6.  1.100 /  6.  1.100
[rawvideo @ 0x14b606290] Stream #0: not enough frames to estimate rate; consider increasing probesize
[rawvideo @ 0x14b606290] Estimating duration from bitrate, this may be inaccurate
Input #0, rawvideo, from 'render.rgb':
  Duration: 00:00:02.59, start: 0.000000, bitrate: 2654207 kb/s
  Stream #0:0: Video: rawvideo (RGB[24] / 0x18424752), rgb24, 1280x720, 2654208 kb/s, 120 tbr, 120 tbn
Stream mapping:
  Stream #0:0 -> #0:0 (rawvideo (native) -> h264 (libx264))
Press [q] to stop, [?] for help
[libx264 @ 0x14b607810] using cpu capabilities: ARMv8 NEON DotProd I8MM
[libx264 @ 0x14b607810] profile High 4:4:4 Predictive, level 4.2, 4:4:4, 8-bit
[libx264 @ 0x14b607810] 264 - core 165 r3222 b35605a - H.264/MPEG-4 AVC codec - Copyleft 2003-2025 - http://www.videolan.org/x264.html - options: cabac=1 ref=3 deblock=1:0:0 analyse=0x3:0x113 me=hex subme=7 psy=1 psy_rd=1.00:0.00 mixed_ref=1 me_range=16 chroma_me=1 trellis=1 8x8dct=1 cqm=0 deadzone=21,11 fast_pskip=1 chroma_qp_offset=4 threads=16 lookahead_threads=2 sliced_threads=0 nr=0 decimate=1 interlaced=0 bluray_compat=0 constrained_intra=0 bframes=3 b_pyramid=2 b_adapt=1 b_bias=0 direct=1 weightb=1 open_gop=0 weightp=2 keyint=250 keyint_min=25 scenecut=40 intra_refresh=0 rc_lookahead=40 rc=crf mbtree=1 crf=23.0 qcomp=0.60 qpmin=0 qpmax=69 qpstep=4 ip_ratio=1.40 aq=1:1.00
Output #0, mp4, to 'render.mp4':
  Metadata:
    encoder         : Lavf62.3.100
  Stream #0:0: Video: h264 (avc1 / 0x31637661), yuv444p(tv, progressive), 1280x720, q=2-31, 120 fps, 15360 tbn
    Metadata:
      encoder         : Lavc62.11.100 libx264
    Side data:
      cpb: bitrate max/min/avg: 0/0/0 buffer size: 0 vbv_delay: N/A
[out#0/mp4 @ 0x600002150240] video:63KiB audio:0KiB subtitle:0KiB other streams:0KiB global headers:0KiB muxing overhead: 7.056299%
frame=  311 fps=0.0 q=-1.0 Lsize=      68KiB time=00:00:02.57 bitrate= 215.5kbits/s speed=5.53x elapsed=0:00:00.46    
[libx264 @ 0x14b607810] frame I:2     Avg QP:15.96  size:  6774
[libx264 @ 0x14b607810] frame P:80    Avg QP:21.53  size:   276
[libx264 @ 0x14b607810] frame B:229   Avg QP:29.08  size:   124
[libx264 @ 0x14b607810] consecutive B-frames:  0.6%  2.6%  2.9% 93.9%
[libx264 @ 0x14b607810] mb I  I16..4: 41.1% 53.2%  5.7%
[libx264 @ 0x14b607810] mb P  I16..4:  0.1%  0.1%  0.0%  P16..4:  1.1%  0.3%  0.1%  0.0%  0.0%    skip:98.2%
[libx264 @ 0x14b607810] mb B  I16..4:  0.0%  0.0%  0.0%  B16..8:  1.2%  0.1%  0.0%  direct: 0.0%  skip:98.6%  L0:27.2% L1:71.8% BI: 1.0%
[libx264 @ 0x14b607810] 8x8 transform intra:51.7% inter:61.9%
[libx264 @ 0x14b607810] coded y,u,v intra: 9.9% 0.3% 0.3% inter: 0.0% 0.0% 0.0%
[libx264 @ 0x14b607810] i16 v,h,dc,p: 10% 10%  2% 79%
[libx264 @ 0x14b607810] i8 v,h,dc,ddl,ddr,vr,hd,vl,hu: 36%  6% 14% 10%  9%  9%  5% 10%  2%
[libx264 @ 0x14b607810] i4 v,h,dc,ddl,ddr,vr,hd,vl,hu: 34% 13% 28%  3%  8%  7%  3%  3%  1%
[libx264 @ 0x14b607810] Weighted P-Frames: Y:0.0% UV:0.0%
[libx264 @ 0x14b607810] ref P L0: 78.5%  6.3% 10.9%  4.3%
[libx264 @ 0x14b607810] ref B L0: 54.8% 41.7%  3.5%
[libx264 @ 0x14b607810] ref B L1: 96.1%  3.9%
[libx264 @ 0x14b607810] kb/s:197.83
ffmpeg version 8.0.1 Copyright (c) 2000-2025 the FFmpeg developers
  built with Apple clang version 17.0.0 (clang-1700.6.3.2)
  configuration: --prefix=/opt/homebrew/Cellar/ffmpeg/8.0.1_1 --enable-shared --enable-pthreads --enable-version3 --cc=clang --host-cflags= --host-ldflags= --enable-ffplay --enable-gpl --enable-libsvtav1 --enable-libopus --enable-libx264 --enable-libmp3lame --enable-libdav1d --enable-libvpx --enable-libx265 --enable-videotoolbox --enable-audiotoolbox --enable-neon
  libavutil      60.  8.100 / 60.  8.100
  libavcodec     62. 11.100 / 62. 11.100
  libavformat    62.  3.100 / 62.  3.100
  libavdevice    62.  1.100 / 62.  1.100
  libavfilter    11.  4.100 / 11.  4.100
  libswscale      9.  1.100 /  9.  1.100
  libswresample   6.  1.100 /  6.  1.100
[rawvideo @ 0x153004190] Stream #0: not enough frames to estimate rate; consider increasing probesize
[rawvideo @ 0x153004190] Estimating duration from bitrate, this may be inaccurate
Input #0, rawvideo, from 'render.rgb':
  Duration: 00:00:02.59, start: 0.000000, bitrate: 2654207 kb/s
  Stream #0:0: Video: rawvideo (RGB[24] / 0x18424752), rgb24, 1280x720, 2654208 kb/s, 120 tbr, 120 tbn
Stream mapping:
  Stream #0:0 -> #0:0 (rawvideo (native) -> h264 (libx264))
Press [q] to stop, [?] for help
[libx264 @ 0x153005710] using cpu capabilities: ARMv8 NEON DotProd I8MM
[libx264 @ 0x153005710] profile High 4:4:4 Predictive, level 4.2, 4:4:4, 8-bit
[libx264 @ 0x153005710] 264 - core 165 r3222 b35605a - H.264/MPEG-4 AVC codec - Copyleft 2003-2025 - http://www.videolan.org/x264.html - options: cabac=1 ref=3 deblock=1:0:0 analyse=0x3:0x113 me=hex subme=7 psy=1 psy_rd=1.00:0.00 mixed_ref=1 me_range=16 chroma_me=1 trellis=1 8x8dct=1 cqm=0 deadzone=21,11 fast_pskip=1 chroma_qp_offset=4 threads=16 lookahead_threads=2 sliced_threads=0 nr=0 decimate=1 interlaced=0 bluray_compat=0 constrained_intra=0 bframes=3 b_pyramid=2 b_adapt=1 b_bias=0 direct=1 weightb=1 open_gop=0 weightp=2 keyint=250 keyint_min=25 scenecut=40 intra_refresh=0 rc_lookahead=40 rc=crf mbtree=1 crf=23.0 qcomp=0.60 qpmin=0 qpmax=69 qpstep=4 ip_ratio=1.40 aq=1:1.00
Output #0, mp4, to 'render.mp4':
  Metadata:
    encoder         : Lavf62.3.100
  Stream #0:0: Video: h264 (avc1 / 0x31637661), yuv444p(tv, progressive), 1280x720, q=2-31, 120 fps, 15360 tbn
    Metadata:
      encoder         : Lavc62.11.100 libx264
    Side data:
      cpb: bitrate max/min/avg: 0/0/0 buffer size: 0 vbv_delay: N/A
[out#0/mp4 @ 0x600001794000] video:63KiB audio:0KiB subtitle:0KiB other streams:0KiB global headers:0KiB muxing overhead: 7.056299%
frame=  311 fps=0.0 q=-1.0 Lsize=      68KiB time=00:00:02.57 bitrate= 215.5kbits/s speed= 5.5x elapsed=0:00:00.46    
[libx264 @ 0x153005710] frame I:2     Avg QP:15.96  size:  6774
[libx264 @ 0x153005710] frame P:80    Avg QP:21.53  size:   276
[libx264 @ 0x153005710] frame B:229   Avg QP:29.08  size:   124
[libx264 @ 0x153005710] consecutive B-frames:  0.6%  2.6%  2.9% 93.9%
[libx264 @ 0x153005710] mb I  I16..4: 41.1% 53.2%  5.7%
[libx264 @ 0x153005710] mb P  I16..4:  0.1%  0.1%  0.0%  P16..4:  1.1%  0.3%  0.1%  0.0%  0.0%    skip:98.2%
[libx264 @ 0x153005710] mb B  I16..4:  0.0%  0.0%  0.0%  B16..8:  1.2%  0.1%  0.0%  direct: 0.0%  skip:98.6%  L0:27.2% L1:71.8% BI: 1.0%
[libx264 @ 0x153005710] 8x8 transform intra:51.7% inter:61.9%
[libx264 @ 0x153005710] coded y,u,v intra: 9.9% 0.3% 0.3% inter: 0.0% 0.0% 0.0%
[libx264 @ 0x153005710] i16 v,h,dc,p: 10% 10%  2% 79%
[libx264 @ 0x153005710] i8 v,h,dc,ddl,ddr,vr,hd,vl,hu: 36%  6% 14% 10%  9%  9%  5% 10%  2%
[libx264 @ 0x153005710] i4 v,h,dc,ddl,ddr,vr,hd,vl,hu: 34% 13% 28%  3%  8%  7%  3%  3%  1%
[libx264 @ 0x153005710] Weighted P-Frames: Y:0.0% UV:0.0%
[libx264 @ 0x153005710] ref P L0: 78.5%  6.3% 10.9%  4.3%
[libx264 @ 0x153005710] ref B L0: 54.8% 41.7%  3.5%
[libx264 @ 0x153005710] ref B L1: 96.1%  3.9%
[libx264 @ 0x153005710] kb/s:197.83
